<?xml version="1.0"?>
<svg xmlns="http://www.w3.org/2000/svg" xmlns:xlink="http://www.w3.org/1999/xlink" xmlns:svgjs="http://svgjs.com/svgjs" version="1.1" width="512" height="512" x="0" y="0" viewBox="0 0 510 510" style="enable-background:new 0 0 512 512" xml:space="preserve" class=""><g><g xmlns="http://www.w3.org/2000/svg"><path d="m420 387.803v-30h84.27l-30-60h27.885l-30-75h34.908l-102.063-163.302-102.064 163.302h34.908l-30 75h27.885l-30 60h84.271v30h-270v-30h84.27l-30-60h27.885l-30-75h34.908l-102.063-163.302-102.063 163.302h34.908l-30 75h27.885l-30 60h84.27v30h-90v30h510v-30zm-67.845-120 30-75h-25.092l47.937-76.698 47.936 76.698h-25.092l30 75h-32.115l30 60h-101.459l30-60zm-300 0 30-75h-25.091l47.936-76.698 47.936 76.698h-25.091l30 75h-32.115l30 60h-101.459l30-60z" fill="#002071" data-original="#000000" style="" class=""/><path d="m407.996 457.803c-53.826 0-55.374 20-102.004 20-46.8 0-47.988-20-101.998-20-53.823 0-55.369 20-101.996 20-46.8 0-47.988-20-101.998-20v30c46.799 0 47.989 20 101.998 20 53.823 0 55.369-20 101.996-20 46.8 0 47.989 20 101.998 20 53.826 0 55.374-20 102.004-20 46.802 0 47.992 20 102.004 20v-30c-22.665 0-33.259-4.154-45.525-8.965-13.192-5.172-28.142-11.035-56.479-11.035z" fill="#002071" data-original="#000000" style="" class=""/><path d="m85.606 23.41-21.212-21.213-19.394 19.393-19.394-19.393-21.212 21.213 40.606 40.607z" fill="#002071" data-original="#000000" style="" class=""/><path d="m295.606 53.41-21.212-21.213-19.394 19.393-19.394-19.393-21.212 21.213 40.606 40.607z" fill="#002071" data-original="#000000" style="" class=""/><path d="m505.606 23.41-21.212-21.213-19.394 19.393-19.394-19.393-21.212 21.213 40.606 40.607z" fill="#002071" data-original="#000000" style="" class=""/></g></g></svg>
